<?xml version="1.0" standalone="no"?>
<!DOCTYPE svg PUBLIC "-//W3C//DTD SVG 20010904//EN"
 "http://www.w3.org/TR/2001/REC-SVG-20010904/DTD/svg10.dtd">
<svg version="1.0" xmlns="http://www.w3.org/2000/svg"
 width="300.000000pt" height="200.000000pt" viewBox="0 0 300.000000 200.000000"
 preserveAspectRatio="xMidYMid meet">
<metadata>
Created by potrace 1.10, written by Peter Selinger 2001-2011
</metadata>
<g transform="translate(0.000000,200.000000) scale(0.100000,-0.100000)"
fill="#000000" stroke="none">
<path d="M977 1279 c-38 -21 -72 -39 -77 -39 -5 0 -45 16 -90 35 -45 19 -87
35 -94 35 -6 0 -42 -16 -79 -36 l-67 -35 0 -245 c0 -205 2 -246 15 -250 8 -3
37 7 64 22 l51 27 2 249 c2 157 7 248 13 248 6 0 11 -91 12 -248 l2 -247 83
-37 c46 -21 89 -38 95 -38 7 0 45 14 83 32 50 22 69 35 65 45 -3 8 -5 19 -5
24 0 17 -15 9 -25 -13 -8 -19 -19 -24 -57 -26 -33 -2 -48 1 -48 9 0 7 -3 9 -6
6 -4 -4 -1 -13 5 -21 13 -15 7 -36 -10 -36 -5 0 -9 20 -9 45 0 44 -1 45 -26
39 -37 -9 -87 39 -79 77 5 22 2 29 -14 34 -40 12 -42 93 -3 110 20 9 22 15 17
45 -5 29 -2 40 19 59 20 19 31 22 60 17 l35 -7 -6 37 c-4 26 -3 35 5 30 6 -4
8 -14 5 -24 -6 -15 -4 -15 9 -4 26 21 91 11 103 -15 17 -40 25 -25 25 46 0 72
15 103 26 54 9 -42 12 -50 13 -30 1 20 7 21 49 6 34 -12 47 -51 36 -107 l-6
-31 -26 32 c-15 18 -32 36 -39 40 -7 4 -13 16 -14 25 -1 10 -4 8 -8 -7 -5 -20
1 -31 34 -62 34 -33 38 -41 28 -57 -13 -21 -7 -35 20 -45 13 -5 17 -18 17 -51
0 -38 -4 -48 -25 -62 -20 -13 -23 -19 -14 -31 16 -18 -2 -52 -41 -78 -17 -11
-30 -25 -30 -31 0 -19 112 -65 127 -52 10 8 13 68 13 257 0 135 -4 251 -8 258
-9 14 -119 63 -141 62 -9 0 -47 -18 -84 -40z m58 -35 c0 -14 -7 -19 -25 -18
-42 3 -43 3 -19 24 28 23 44 21 44 -6z m-193 -21 c19 -17 18 -17 -9 -31 -15
-8 -40 -29 -55 -46 l-27 -31 -1 69 0 69 36 -6 c20 -3 45 -14 56 -24z m-162
-182 l0 -198 -26 -27 c-50 -49 -52 -42 -50 197 1 167 3 187 20 206 11 12 27
21 38 21 17 0 18 -12 18 -199z m109 -210 l20 -28 -24 4 c-24 5 -40 28 -29 44
8 13 11 12 33 -20z m389 -17 c-3 -30 -23 -40 -47 -25 -11 7 -9 15 10 40 26 35
42 28 37 -15z"/>
<path d="M1352 1225 c-37 -31 -50 -81 -32 -126 17 -41 47 -59 98 -59 60 0 92
35 92 101 0 63 -29 98 -86 106 -33 4 -45 1 -72 -22z m102 -37 c22 -31 20 -74
-4 -98 -24 -24 -38 -25 -68 -4 -27 18 -31 84 -6 108 22 23 60 20 78 -6z"/>
<path d="M1827 1244 c-16 -16 -6 -34 19 -34 19 0 25 5 22 17 -3 19 -29 29 -41
17z"/>
<path d="M2230 1143 c0 -98 1 -103 21 -103 19 0 20 5 17 70 -3 78 0 78 32 -2
30 -78 48 -76 82 10 l27 67 0 -72 c1 -66 3 -73 21 -73 19 0 20 7 20 104 l0
105 -27 -3 c-23 -3 -30 -12 -52 -69 -14 -37 -28 -67 -31 -67 -3 0 -17 30 -33
68 -23 57 -31 67 -52 67 -25 0 -25 0 -25 -102z"/>
<path d="M1720 1215 c0 -14 -4 -25 -10 -25 -5 0 -10 -7 -10 -15 0 -8 5 -15 10
-15 6 0 10 -19 10 -43 0 -56 17 -80 55 -75 35 4 45 25 13 30 -19 2 -23 10 -26
46 -3 37 -1 42 17 42 12 0 21 7 21 15 0 8 -9 15 -20 15 -15 0 -20 7 -20 25 0
18 -5 25 -20 25 -15 0 -20 -7 -20 -25z"/>
<path d="M937 1184 c-4 -4 -7 -15 -7 -25 0 -20 -39 -32 -57 -18 -8 8 -19 5
-37 -8 -27 -19 -33 -39 -15 -45 19 -6 -1 -57 -24 -60 -17 -2 -22 -10 -22 -33
0 -23 5 -31 22 -33 24 -4 40 -47 24 -66 -16 -19 33 -63 52 -47 20 16 47 3 58
-26 7 -20 15 -24 41 -21 24 2 32 8 30 19 -3 19 50 47 56 30 6 -18 27 -13 51
12 18 20 20 26 7 36 -18 15 1 61 27 61 13 0 17 8 17 35 0 27 -4 35 -18 35 -27
0 -45 43 -26 62 13 12 11 17 -11 38 -19 18 -27 20 -38 11 -21 -17 -69 3 -65
26 2 13 -5 19 -27 21 -17 2 -34 0 -38 -4z m53 -59 c11 -13 8 -15 -14 -15 -16
0 -26 5 -26 15 0 8 6 15 14 15 7 0 19 -7 26 -15z m19 -60 c16 -8 31 -22 35
-30 33 -86 -56 -160 -127 -105 -48 38 -41 110 13 137 32 16 45 16 79 -2z
m-163 -93 c-4 -3 -11 -1 -18 6 -8 8 -8 15 3 28 13 16 14 16 17 -5 2 -13 1 -25
-2 -29z m39 -62 c18 -20 17 -20 -8 -20 -20 0 -24 4 -20 20 3 11 6 20 8 20 1 0
10 -9 20 -20z"/>
<path d="M1540 1083 c0 -96 1 -103 20 -103 16 0 20 7 20 33 0 32 1 33 35 29
19 -2 42 1 49 8 35 28 26 123 -13 134 -9 3 -37 4 -63 4 l-48 -1 0 -104z m102
51 c15 -33 0 -59 -33 -59 -19 0 -25 6 -27 28 -5 40 4 57 28 57 12 0 25 -10 32
-26z"/>
<path d="M1825 1115 c0 -68 2 -75 20 -75 18 0 20 7 20 75 0 68 -2 75 -20 75
-18 0 -20 -7 -20 -75z"/>
<path d="M1907 1172 c-23 -26 -22 -94 1 -115 26 -24 87 -22 112 3 30 30 22 98
-14 122 -22 15 -83 8 -99 -10z m83 -26 c26 -32 -7 -87 -44 -73 -16 6 -23 66
-9 80 11 12 40 8 53 -7z"/>
<path d="M2060 1114 c0 -67 2 -74 20 -74 17 0 20 7 20 49 0 51 18 78 45 67 11
-4 15 -21 15 -61 0 -48 2 -55 20 -55 18 0 20 7 20 56 0 83 -9 94 -80 93 l-60
-1 0 -74z"/>
<path d="M2492 1178 c-22 -22 -13 -30 27 -23 30 5 40 3 44 -9 5 -12 0 -16 -18
-16 -44 0 -75 -18 -75 -44 0 -34 19 -45 78 -44 l52 1 0 62 c0 34 -5 66 -12 73
-16 16 -80 16 -96 0z m68 -88 c-12 -22 -50 -27 -50 -7 0 20 10 27 37 27 21 0
22 -3 13 -20z"/>
<path d="M2630 1084 c0 -97 1 -104 20 -104 16 0 20 7 20 33 0 32 1 33 35 29
19 -2 42 1 50 8 22 18 29 74 13 107 -12 26 -18 28 -76 30 l-62 2 0 -105z m101
55 c16 -31 -4 -71 -34 -67 -39 5 -37 88 2 88 11 0 25 -10 32 -21z"/>
</g>
</svg>
